<?xml version="1.0" encoding="UTF-8"?>
<svg id="Capa_1" data-name="Capa 1" xmlns="http://www.w3.org/2000/svg" viewBox="0 0 319.37 319.37">
  <defs>
    <style>
      .cls-1, .cls-2 {
        stroke-width: 0px;
      }

      .cls-1, .cls-3 {
        fill: #ed7020;
      }

      .cls-2 {
        fill: #fff;
      }

      .cls-4 {
        fill: none;
        stroke-linecap: round;
        stroke-linejoin: round;
        stroke-width: .49px;
      }

      .cls-4, .cls-3 {
        stroke: #fff;
      }

      .cls-3 {
        stroke-miterlimit: 10;
        stroke-width: 1.57px;
      }
    </style>
  </defs>
  <g>
    <path class="cls-2" d="m85.32,246.83c-.99-.42-2.17-.85-3.44-1.27-4.62-1.41-9.61-2.97-9.61-9.8,0-6.08,4.24-9.75,10.93-9.75,2.78,0,9.47.71,9.47,4.24,0,1.55-1.22,2.97-3.3,2.97-.85,0-1.51-.28-2.31-.52-.89-.33-1.93-.71-3.58-.71-2.31,0-4.47.8-4.47,3.58,0,2.07,1.18,2.78,1.98,3.16,1.22.61,2.36.99,3.39,1.27,4.62,1.46,9.66,3.06,9.66,9.75s-4.99,10.32-11.73,10.32c-3.49,0-10.08-1.22-10.08-4.52,0-1.51,1.37-2.97,3.11-2.97.71,0,1.46.24,2.35.56,1.13.38,2.64.94,4.66.94,3.25,0,4.9-1.46,4.9-4.05,0-2.12-1.08-2.83-1.93-3.2Z"/>
    <path class="cls-2" d="m119.37,260.06c-7.58,0-11.82-4.99-11.82-11.73v-19.22c0-1.79,1.46-3.11,3.34-3.11,1.74,0,3.25,1.41,3.25,3.11v19.22c0,3.39,1.65,5.75,5.23,5.75s5.18-2.4,5.18-5.75v-19.22c0-1.65,1.41-3.11,3.25-3.11,1.93,0,3.39,1.46,3.39,3.11v19.22c0,6.78-4.38,11.73-11.82,11.73Z"/>
    <path class="cls-2" d="m163.03,259.64h-12.48c-2.31,0-4.38-.8-4.38-3.34v-26.52c0-1.65,1.55-3.34,3.63-3.34h12.76c1.79,0,3.3,1.41,3.3,3.06s-1.51,2.92-3.3,2.92h-9.8v7.58h8.9c1.65,0,3.25,1.27,3.25,2.97s-1.41,3.01-3.25,3.01h-8.9v7.68h10.27c1.74,0,3.3,1.32,3.3,2.92,0,1.7-1.51,3.06-3.3,3.06Z"/>
    <path class="cls-2" d="m196.61,259.64h-13.28c-1.88,0-3.53-1.41-3.53-3.25v-27.37c0-1.6,1.46-3.01,3.3-3.01s3.3,1.41,3.3,3.01v24.68h10.22c1.7,0,3.2,1.27,3.2,2.92s-1.41,3.01-3.2,3.01Z"/>
    <path class="cls-2" d="m218.65,257.85c-.47,1.37-1.98,2.21-3.11,2.21-1.84,0-3.39-1.22-3.39-3.01,0-.24.05-.8.14-1.04l9.19-26.8c.61-1.84,1.55-3.2,3.82-3.2s3.2,1.32,3.86,3.2l9.19,26.8c.09.24.14.8.14,1.04,0,1.79-1.46,3.01-3.39,3.01-1.22,0-2.73-.9-3.2-2.21l-1.65-4.76h-10.03l-1.55,4.76Zm7.49-18.18c-.42-1.37-.66-3.16-.85-4.62-.19,1.46-.42,3.25-.85,4.62l-2.5,8.05h6.59l-2.4-8.05Z"/>
  </g>
  <g>
    <path class="cls-2" d="m98.77,269.32h2.89c1.96,0,2.92,1.09,2.92,3.08v1.23c0,2-.96,3.08-2.92,3.08h-.93v5.08h-1.96v-12.48Zm2.89,5.61c.62,0,.96-.29.96-1.18v-1.48c0-.89-.34-1.18-.96-1.18h-.93v3.83h.93Z"/>
    <path class="cls-2" d="m109.21,269.32h2.91c2.03,0,2.91.94,2.91,2.87v.77c0,1.28-.41,2.1-1.28,2.46v.04c.98.3,1.3,1.23,1.3,2.64v2.19c0,.61.02,1.05.21,1.52h-2c-.11-.32-.18-.52-.18-1.53v-2.28c0-1.16-.34-1.53-1.23-1.53h-.68v5.35h-1.96v-12.48Zm2.67,5.35c.73,0,1.18-.32,1.18-1.32v-.96c0-.89-.3-1.28-1-1.28h-.89v3.56h.71Z"/>
    <path class="cls-2" d="m119.81,278.84v-6.56c0-2,1.05-3.14,2.98-3.14s2.98,1.14,2.98,3.14v6.56c0,2-1.05,3.14-2.98,3.14s-2.98-1.14-2.98-3.14Zm3.99.12v-6.81c0-.89-.39-1.23-1.02-1.23s-1.02.34-1.02,1.23v6.81c0,.89.39,1.23,1.02,1.23s1.02-.34,1.02-1.23Z"/>
    <path class="cls-2" d="m130.64,269.32h2.99c1.96,0,2.92,1.09,2.92,3.08v6.31c0,2-.96,3.08-2.92,3.08h-2.99v-12.48Zm2.96,10.69c.62,0,1-.32,1-1.21v-6.49c0-.89-.37-1.21-1-1.21h-1v8.91h1Z"/>
    <path class="cls-2" d="m141.36,278.84v-9.52h1.96v9.66c0,.89.37,1.21,1,1.21s1-.32,1-1.21v-9.66h1.89v9.52c0,2-1,3.14-2.92,3.14s-2.92-1.14-2.92-3.14Z"/>
    <path class="cls-2" d="m152.03,278.91v-6.7c0-1.92,1-3.07,2.89-3.07s2.89,1.14,2.89,3.07v1.32h-1.85v-1.44c0-.82-.39-1.16-.98-1.16s-.98.34-.98,1.16v6.97c0,.82.39,1.14.98,1.14s.98-.32.98-1.14v-1.91h1.85v1.76c0,1.92-1,3.07-2.89,3.07s-2.89-1.14-2.89-3.07Z"/>
    <path class="cls-2" d="m162.46,278.91v-6.7c0-1.92,1-3.07,2.89-3.07s2.89,1.14,2.89,3.07v1.32h-1.85v-1.44c0-.82-.39-1.16-.98-1.16s-.98.34-.98,1.16v6.97c0,.82.39,1.14.98,1.14s.98-.32.98-1.14v-1.91h1.85v1.76c0,1.92-1,3.07-2.89,3.07s-2.89-1.14-2.89-3.07Z"/>
    <path class="cls-2" d="m172.97,269.32h1.96v12.48h-1.96v-12.48Z"/>
    <path class="cls-2" d="m179.81,278.84v-6.56c0-2,1.05-3.14,2.98-3.14s2.98,1.14,2.98,3.14v6.56c0,2-1.05,3.14-2.98,3.14s-2.98-1.14-2.98-3.14Zm3.99.12v-6.81c0-.89-.39-1.23-1.02-1.23s-1.02.34-1.02,1.23v6.81c0,.89.39,1.23,1.02,1.23s1.02-.34,1.02-1.23Z"/>
    <path class="cls-2" d="m190.64,269.32h2.46l1.91,7.47h.04v-7.47h1.75v12.48h-2.01l-2.35-9.11h-.04v9.11h-1.75v-12.48Z"/>
    <path class="cls-2" d="m201.81,269.32h5.35v1.78h-3.39v3.3h2.69v1.78h-2.69v3.83h3.39v1.78h-5.35v-12.48Z"/>
    <path class="cls-2" d="m211.54,278.84v-.71h1.85v.86c0,.89.39,1.21,1.02,1.21s1.02-.32,1.02-1.25c0-1.03-.39-1.69-1.67-2.82-1.64-1.44-2.17-2.46-2.17-3.89,0-1.96,1.02-3.1,2.92-3.1s2.85,1.14,2.85,3.14v.52h-1.85v-.64c0-.89-.36-1.23-.98-1.23s-.98.34-.98,1.19c0,.91.41,1.57,1.69,2.69,1.64,1.44,2.16,2.44,2.16,3.99,0,2.03-1.03,3.17-2.96,3.17s-2.89-1.14-2.89-3.14Z"/>
  </g>
  <path class="cls-2" d="m96.13,66.72h-36.45l4.08-8.85c1.58-3.42,4.41-5.46,7.57-5.46h12.04c2.79,0,5.44,1.68,7.07,4.49l5.69,9.82Zm-26.62-6.29h15.72l-.22-.38c-.48-.82-1.12-1.36-1.63-1.36h-12.04c-.5,0-1.25.54-1.83,1.74Z"/>
  <g>
    <path class="cls-2" d="m183.34,120.7c-1.42,2.84-2.46,5.93-3.04,9.22-1.44,8.15.19,16.13,4.06,22.76l23.55-27.64-24.56-4.33Z"/>
    <path class="cls-2" d="m211.65,102.18c-11.57.6-21.98,7.16-27.57,17.13l35.95,6.35-8.38-23.48Z"/>
    <path class="cls-2" d="m243.46,150.81c1.42-2.84,2.46-5.93,3.04-9.21,1.44-8.14-.19-16.12-4.05-22.74l-23.55,27.62,24.56,4.33Z"/>
    <path class="cls-2" d="m241.64,117.52c-4.9-7.57-12.81-13.17-22.39-14.86-2.03-.36-4.04-.52-6.03-.52l12.26,34.33,16.16-18.95Z"/>
    <path class="cls-2" d="m185.18,154.01c4.9,7.57,12.8,13.16,22.38,14.85,2.16.38,4.3.54,6.41.51l-12.64-34.33-16.16,18.97Z"/>
    <path class="cls-2" d="m215.55,169.31c11.41-.72,21.66-7.25,27.18-17.11l-35.81-6.32,8.62,23.43Z"/>
  </g>
  <path class="cls-2" d="m256.93,214.53h-86.93c-12.33,0-22.37-10.03-22.37-22.37v-10.97c0-4.33,3.53-7.86,7.86-7.86s7.86,3.53,7.86,7.86v10.97c0,3.67,2.98,6.65,6.65,6.65h86.93c3.67,0,6.65-2.98,6.65-6.65v-107.31c0-3.67-2.98-6.65-6.65-6.65h-80.93c-2.96,0-5.58,1.98-6.39,4.83l-31.53,110.62c-3.5,12.29-14.88,20.88-27.66,20.88h-43.59c-15.86,0-28.76-12.9-28.76-28.76v-93.25c0-15.86,12.9-28.76,28.76-28.76h75.93c4.33,0,7.86,3.53,7.86,7.86s-3.53,7.86-7.86,7.86h-75.93c-7.19,0-13.04,5.85-13.04,13.04v93.25c0,7.19,5.85,13.04,13.04,13.04h43.59c5.8,0,10.95-3.89,12.54-9.47l31.53-110.62c2.72-9.56,11.57-16.24,21.51-16.24h80.93c12.33,0,22.37,10.03,22.37,22.37v107.31c0,12.33-10.03,22.37-22.37,22.37Z"/>
  <path class="cls-3" d="m256.46,93.37c0,2.98-2.42,5.4-5.4,5.4s-5.4-2.42-5.4-5.4,2.42-5.4,5.4-5.4,5.4,2.42,5.4,5.4Z"/>
  <g>
    <circle id="fondo_2do_logo" data-name="fondo 2do logo" class="cls-1" cx="251.06" cy="93.37" r="4.6"/>
    <g id="S_Segundo_logo" data-name="S Segundo logo">
      <path class="cls-4" d="m246.99,93.37c0-2.24,1.82-4.06,4.06-4.06,1.79,0,3.31,1.16,3.85,2.77"/>
      <path class="cls-4" d="m255.12,93.37c0,2.24-1.82,4.06-4.06,4.06-1.75,0-3.24-1.11-3.81-2.66"/>
      <line class="cls-4" x1="253.31" y1="93.37" x2="255.12" y2="93.37"/>
      <line class="cls-4" x1="247.03" y1="93.37" x2="249.44" y2="93.37"/>
    </g>
    <path class="cls-2" d="m249.59,92.81c0-.85.51-1.4,1.63-1.4.66,0,1.3.24,1.3.52,0,.14-.15.26-.35.26-.13,0-.17-.04-.27-.09l-.03-.02c-.18-.1-.38-.15-.62-.15-.69,0-.92.34-.92.87v1.12c0,.54.22.87.92.87.24,0,.43-.05.62-.15l.03-.02c.1-.05.14-.09.27-.09.2,0,.35.12.35.25,0,.29-.64.52-1.3.52-1.12,0-1.63-.55-1.63-1.4v-1.12Z"/>
  </g>
  <path class="cls-2" d="m159.69,319.37C71.63,319.37,0,247.74,0,159.69S71.63,0,159.69,0s159.69,71.63,159.69,159.69-71.63,159.69-159.69,159.69Zm0-315.43C73.81,3.94,3.94,73.81,3.94,159.69s69.87,155.74,155.74,155.74,155.74-69.87,155.74-155.74S245.56,3.94,159.69,3.94Z"/>
</svg>