<?xml version="1.0" encoding="UTF-8"?>
<svg id="Capa_1" data-name="Capa 1" xmlns="http://www.w3.org/2000/svg" viewBox="0 0 360.37 370.17">
  <defs>
    <style>
      .cls-1, .cls-2, .cls-3 {
        stroke-width: 0px;
      }

      .cls-2 {
        fill: #fff;
      }

      .cls-3 {
        fill: #de0a14;
      }
    </style>
  </defs>
  <path class="cls-2" d="m336.91,104.77c2.54-7.52,4.06-15.71,4.23-23.64.54-24.39-11.6-41.63-31.8-53.73-1.84,8.76-3.53,17.24-5.43,25.68-1.38,6.17-1.21,15.48-5,17.65-5.34,3.05-13.72.78-20.8.78-.68,0-1.39-.14-2.02.02-8.55,2.14-12.58-2.27-15.96-9.58-8.71-18.83-21.72-33.97-41.85-40.93-20.31-7.03-40.87-4.38-60.63,2.5-7.19,2.5-12.73,2.84-19.53-.56-14.56-7.29-30.37-9.42-46.48-8.05-5.55.47-11.52,1.56-13.61,8.62-1.94,6.57,1,10.87,5.75,14.55,6.09,4.71,12.26,9.31,18.95,14.38-10.76,5.82-20,12.19-28.99,19-20.8,15.74-36.95,34.41-45.48,59.93-4.5,13.45-.67,29.68-13.15,40.54-1.67,1.45.72,2.87,1.58,4.15,3.43,5.1,4.51,11.04,6.2,16.79,11.88,40.48,33.23,72.71,76.15,85.34,4.57,1.35,3.19,4.18,2.83,5.93-.81,3.96-2.08,8.14-4.31,11.46-10.79,16.03-22.25,31.61-32.77,47.81-2.15,3.31-7.64,6.16-4.61,12.23,14.45-9.66,28.74-19.4,43.21-28.86,17.21-11.26,34.82-12.04,52.97-1.86,3.01,1.69,5.52,3.36,4.4,6.54-2.44,6.91,2.69,3.96,3.86,2.7,4.02-4.32,6.48-2.58,10.92.03,7.33,4.3,14.84,8.95,24.68,11.41-3.32-8.47-8.86-13.62-12.86-19.76-1.04-1.61-2.69-3.72,1.59-5.96,9.9-5.19,18.72-2.55,27.75,1.14,12.96,5.3,25.82,10.83,39.1,16.42.52-6.2-5.23-8.76-5.83-14.25,13.45,3.23,26.24,3.82,37.55-4.47,17.76-13.01,23.5-36.21,2.34-52.38-2.66-2.04-3.72-2.1-6.56-.08-18.15,12.9-26.99,5.23-35.03-10.15,6.55.14,12.77,1.15,19.14-1.72,18.7-8.4,27.51-36.15,21.82-53.07-2.85-8.48-2.17-15.12,3.29-21.98,4.19-5.27,7.64-11.12,11.47-16.68,2.76-4.01,4.07-6.71,10.57-2.38,10.96,7.3,18.52,5.79,25.93-1.76,6.89-7.02,7.24-16.12.13-25.5-6.83-9-7.22-17.85-3.71-28.22m-232.87,124.38c-42.91-22.78-41.17-97.12,0-124.64v124.64Zm52.53-87.71c.04-1.13.27-4.43,1.88-5.18.85-.4,2.05-.16,3.77.93,4.45,2.82,8.03.67,12.48-1.58v40.97c-1.01.19-1.68.48-2.31.41-6.14-.67-10.95-4.57-11.92-5.58-4.89-5.1-4.56-13.39-3.9-29.97m14.3,162.39c-5.4-6.56-9.31-12.27-11.74-19.74,5.37,2.11,12.82-3.36,15.41,3.44,1.64,4.28-3.93,9.46-3.67,16.3m1.97-61.94c-.33-.05-.67-.01-1,0q-14.74.82-15.23-21.71c9.28,2.43,18.51,4.48,20.04,16.36.45,3.53.93,6-3.81,5.34m16.33-168.28c-4.15.35-4.03-1.94-4.06-4.84-.05-4.46,2.62-3.63,5.25-2.94,4.63,1.21,8.53,3.83,14.18,7.69-6.2,0-10.82-.3-15.37.09m58.08,153.58c-3.35,2.9-3.94,7.33-6.56,10.67-1.57-2.2-.72-4.9-2.54-7.31-4.35-5.75-.39-8.12,5.03-8.85,1.51-.2,3.84.02,4.52.97.7.96.45,3.76-.44,4.53m46.95-90.89c-8.43-.71-14.95,3.08-22.33,9.1,2.01-13.25,11.26-17.62,19.55-22.77,2.44-1.52,3.85.8,4.67,2.31,1.77,3.26,4.06,6.79,4.12,10.25.05,2.62-4,1.29-6.01,1.12"/>
  <path class="cls-2" d="m60.16,370.17c-1.24,0-2.49-.16-3.72-.48-4.03-1.07-7.41-3.82-9.27-7.55-4.5-9.01-2.83-17.82,4.95-26.19.22-.24.44-.47.65-.7,6.22-9.57,12.8-18.98,19.16-28.09,4.22-6.05,8.59-12.29,12.77-18.47-37.05-14.36-61.89-44.47-75.76-91.71-.37-1.27-.72-2.55-1.06-3.83-.91-3.37-1.71-6.31-2.9-8.38-1.61-1.72-5.27-6.02-4.96-12.49.2-4.34,2.17-8.35,5.54-11.28,3.85-3.35,4.57-8.13,5.61-17,.62-5.26,1.32-11.23,3.31-17.2,8.77-26.2,24.81-47.46,50.49-66.9,4.21-3.19,8.18-6.06,12.04-8.69-.71-.54-1.41-1.09-2.12-1.63-13.94-10.8-12.74-23.53-10.78-30.15,3.36-11.39,12.21-17.77,26.3-18.97,19.96-1.7,38.19,1.51,54.21,9.53,2.16,1.08,3.4,1.52,8.26-.17C178.84.77,201.79-.04,223.03,7.3c21.97,7.6,38.89,23.94,50.28,48.56.24.52.45.95.64,1.31,1.98-.32,3.57-.22,4.42-.17,2.69.01,5.32.25,7.65.46.74.07,1.61.15,2.48.21.03-.23.06-.45.09-.65.31-2.32.62-4.71,1.16-7.12,1.29-5.77,2.48-11.5,3.74-17.57.54-2.62,1.09-5.26,1.65-7.92.97-4.6,4.09-8.44,8.39-10.32,4.3-1.88,9.25-1.57,13.28.85,26.04,15.59,39.48,38.59,38.86,66.51-.21,9.25-1.93,18.92-5,27.97-2.53,7.48-1.47,10.85,1.52,14.79,11.37,14.99,10.86,32.02-1.33,44.45-8.06,8.22-20.96,15.56-38.23,7.2-.08.13-.17.25-.25.38-2.6,3.98-5.29,8.09-8.5,12.12-1.75,2.2-2.52,3.47-.89,8.31,5.44,16.18,1.58,38.67-10.18,54.75,1.96.76,3.92,1.88,5.86,3.36,12.58,9.62,19.42,22.55,19.28,36.44-.15,14.84-8.12,29.13-21.86,39.2-8.51,6.23-17.49,8.75-25.96,9.33-.68,4.18-3.16,7.88-6.81,10.1-3.98,2.41-8.87,2.76-13.16.96-3.98-1.68-7.93-3.35-11.85-5.01-9.32-3.95-18.11-7.67-27.11-11.35-.08-.03-.16-.07-.24-.1.99,1.83,1.93,3.8,2.77,5.95,1.98,5.06.97,10.8-2.62,14.89-3.59,4.08-9.15,5.82-14.43,4.5-10.9-2.72-19.16-7.47-26.43-11.75-5.1,2.83-11.53,3.61-17.14.21-1.41-.85-6.88-4.65-7.46-12.39-11.89-5.51-22.62-4.47-34.32,3.19-9.95,6.51-20.04,13.29-29.79,19.85-4.42,2.97-8.85,5.95-13.3,8.93-2.41,1.61-5.23,2.45-8.07,2.45m140.34-67.76c9.09,0,16.71,3.12,21.69,5.16,5.4,2.21,10.85,4.49,16.25,6.76.57-.74,1.21-1.42,1.92-2.05,3.55-3.13,8.4-4.32,13-3.22,12.17,2.93,19.58,2.33,25.57-2.06,6.19-4.54,9.93-10.55,9.98-16.07.03-3.08-1.13-6.06-3.45-8.89-8.84,4.91-17.04,6.37-24.91,4.48-12.94-3.11-20.24-14.3-25.15-23.71-1.92-3.67-2.16-7.94-.76-11.75-2.27-1.04-4.27-2.67-5.76-4.76-2.4-3.36-3.16-6.66-3.54-8.74-5.14-7.94-3.65-14.68-2.22-18.13,1.95-4.68,6.68-10.59,18.11-12.14,5.84-.79,13.67.59,18.2,6.81,5.04,6.94,3.97,17.8-2.19,23.62-.21.4-.54,1.09-.79,1.63-.34.73-.73,1.56-1.18,2.46,2.81.09,4.69-.03,6.19-.7,11.13-5.01,17.54-24.7,14.01-35.2-4.53-13.48-2.67-25.15,5.7-35.65,2.36-2.97,4.57-6.35,6.9-9.92,1.3-1.99,2.61-3.99,3.96-5.95l.38-.56c.7-1.02,1.4-1.96,2.12-2.81-.49-.07-.93-.14-1.31-.21l-.43-.07c-2.66-.18-5.48.8-11.74,5.9-4.65,3.79-11.16,4.33-16.37,1.36-5.21-2.98-8.06-8.85-7.16-14.79,2.84-18.74,15.6-26.47,24.04-31.59.74-.45,1.47-.89,2.21-1.35,4.14-2.57,8.91-3.33,13.45-2.13,4.89,1.29,8.81,4.61,11.65,9.85.22.41.46.83.69,1.25,2.14,3.82,5.07,9.06,5.18,15.67.06,3.2-.81,6.26-2.44,8.87,4.04.7,7.65,2.59,10.31,4.36,3.28,2.18,4.74,2.31,4.85,2.32,0-.02.88-.35,2.66-2.17,1.18-1.2,2.2-2.24-1.07-6.56-9.3-12.26-11.23-25.89-5.89-41.65,2.13-6.29,3.33-12.97,3.47-19.31.23-10.33-2.38-19.07-8.08-26.63-.15.7-.31,1.39-.46,2.09-.26,1.14-.49,2.89-.71,4.57-.97,7.34-2.3,17.4-11.26,22.52-7.71,4.4-16.03,3.64-22.72,3.04-1.96-.18-3.81-.35-5.27-.35-.08.02-.24,0-.36,0-9.82,1.9-22.53-.05-30.82-17.98-8.06-17.42-18.99-28.32-33.42-33.31-14.83-5.13-31.55-4.32-51.11,2.49-7.76,2.7-18.26,4.98-30.81-1.29-10.36-5.19-22.33-7.45-35.61-6.78,3.1,2.37,6.24,4.74,9.48,7.18l6.01,4.54c3.94,2.98,6.09,7.76,5.71,12.68-.38,4.92-3.23,9.32-7.57,11.67-8.75,4.73-17.12,10.22-27.14,17.81-20.79,15.74-33.65,32.57-40.48,52.96-1.04,3.12-1.51,7.12-2.01,11.36-.91,7.8-2.08,17.76-7.87,26.84,1.79,4.03,2.85,7.97,3.77,11.36.29,1.08.58,2.16.9,3.23,12.44,42.38,32.89,65.66,66.32,75.5,8.69,2.56,16.06,10.59,12.96,22.77l-.03.12c-1.38,6.71-3.5,12.11-6.47,16.53-1.13,1.68-2.27,3.36-3.42,5.04,16.31-7.24,33.3-7.28,49.98-.1-4.24-5.59-8.21-11.99-10.83-20.05-1.74-5.34-.24-11.21,3.85-15.06,3.67-3.45,8.82-4.74,13.62-3.49.36-.04.81-.1,1.18-.15,15.27-2.03,21.55,5.66,24.14,12.46,2.94,7.69.08,14.32-1.62,18.27-.39.91-.98,2.27-1.1,2.84.02.69-.01,1.38-.09,2.05,5.36-2.28,10.48-3.12,15.21-3.12m56.26-64.23h0s0,0,.01,0c0,0,0,0-.01,0m-13.52-2.13c.52.09,1.02.12,1.5.08,1.14-.41,3.31-1.87,4.73-4.54l-6.23,4.45Zm55.5-113.74h.02-.02Zm38.17-17.54h.02-.02Zm-170.82,151.88c-5.97,0-11.56-.94-16.4-5.43-7.06-6.54-7.25-15.12-7.59-30.71-.1-4.56,1.95-8.89,5.52-11.72,3.58-2.82,8.28-3.8,12.68-2.65l.83.22c9.5,2.48,27.19,7.1,29.93,28.34l.04.33c.42,3.22,1.4,10.75-4.56,16.65-2.58,2.56-7.13,5.38-14.37,4.75-2.06.11-4.1.22-6.09.22m8.75-29.14h.02-.02Zm-70.8,16.16c-2.34,0-4.68-.56-6.81-1.7-22.97-12.2-37.59-37.41-39.11-67.44-1.69-33.37,13.17-65.6,37.85-82.1,4.45-2.98,10.19-3.26,14.92-.74,4.73,2.53,7.68,7.45,7.68,12.81v124.65c0,5.1-2.67,9.82-7.04,12.45-2.3,1.38-4.89,2.08-7.48,2.08m68.55-52.15c-.56,0-1.15-.03-1.77-.1-9.93-1.09-17.76-6.77-20.82-9.96-9.17-9.56-8.68-21.91-7.94-40.6.46-11.49,6.6-16.06,10.23-17.75,2.77-1.3,8.07-2.8,14.65.16.13-.07.26-.13.38-.2l.82-.42c4.5-2.28,9.86-2.06,14.16.59,4.3,2.64,6.92,7.33,6.92,12.37v40.96c0,6.99-4.98,12.99-11.85,14.27l-.08.03c-.9.22-2.56.64-4.71.64m-16.01-50.08h.02-.02Zm31.84-53.26c-5.94,0-9.86-2.37-12.17-4.47-5.57-5.07-5.63-11.67-5.65-14.49v-.27c-.09-8.27,4.06-12.75,6.54-14.69,6.63-5.17,13.96-3.24,16.72-2.51l.2.05c7.19,1.88,12.78,5.7,18.69,9.75,5.26,3.59,7.55,10.19,5.67,16.28-1.88,6.08-7.51,10.23-13.87,10.23-2.09,0-4-.03-5.79-.06-3.35-.06-6-.1-8.35.1h0c-.68.06-1.34.09-1.98.09m.76-14.56h.02-.02Z"/>
  <path class="cls-1" d="m339.83,135.94c-6.83-9-7.22-17.85-3.71-28.22,2.54-7.52,4.06-15.71,4.23-23.64.54-24.39-11.6-41.63-31.8-53.73-1.84,8.76-3.53,17.24-5.43,25.68-1.38,6.17-1.2,15.48-5,17.65-5.34,3.05-13.72.78-20.8.78-.68,0-1.39-.14-2.02.02-8.55,2.14-12.58-2.27-15.96-9.58-8.71-18.83-21.72-33.97-41.85-40.93-20.31-7.03-40.87-4.38-60.63,2.5-7.19,2.5-12.73,2.84-19.53-.56-14.56-7.29-30.37-9.42-46.48-8.05-5.55.47-11.52,1.56-13.61,8.62-1.94,6.57,1,10.87,5.75,14.55,6.09,4.71,12.26,9.31,18.95,14.38-10.76,5.82-20,12.19-28.99,19-20.8,15.74-36.94,34.41-45.48,59.93-4.5,13.45-.67,29.68-13.15,40.54-1.67,1.45.72,2.87,1.58,4.15,3.43,5.1,4.51,11.04,6.2,16.79,11.88,40.48,33.23,72.71,76.15,85.34,4.57,1.35,3.19,4.18,2.83,5.93-.81,3.96-2.08,8.14-4.31,11.46-10.79,16.03-22.25,31.61-32.77,47.81-2.15,3.31-7.64,6.16-4.61,12.23,14.45-9.66,28.74-19.4,43.21-28.86,17.21-11.26,34.82-12.04,52.97-1.86,3.01,1.69,5.52,3.37,4.4,6.54-2.44,6.91,2.69,3.95,3.86,2.7,4.02-4.32,6.48-2.58,10.92.03,7.33,4.3,14.84,8.95,24.68,11.41-3.32-8.47-8.86-13.62-12.86-19.76-1.04-1.61-2.69-3.72,1.59-5.96,9.9-5.19,18.72-2.55,27.75,1.14,12.96,5.3,25.82,10.83,39.1,16.42.52-6.2-5.23-8.76-5.83-14.25,13.45,3.23,26.24,3.82,37.55-4.47,17.76-13.01,23.5-36.21,2.34-52.38-2.66-2.04-3.72-2.1-6.56-.08-18.16,12.9-26.99,5.23-35.03-10.15,6.55.14,12.77,1.15,19.14-1.72,18.7-8.4,27.51-36.15,21.82-53.07-2.85-8.48-2.17-15.12,3.29-21.98,4.19-5.27,7.64-11.12,11.47-16.68,2.76-4.01,4.07-6.71,10.57-2.38,10.96,7.3,18.52,5.79,25.93-1.76,6.89-7.02,7.24-16.12.13-25.5m-236.58,96.16c-42.91-22.78-41.17-97.12,0-124.64v124.64Zm52.53-87.71c.05-1.13.27-4.43,1.88-5.18.85-.4,2.05-.16,3.77.93,4.45,2.82,8.03.67,12.47-1.58v40.97c-1.01.19-1.68.48-2.31.41-6.14-.67-10.95-4.57-11.92-5.58-4.89-5.1-4.56-13.39-3.9-29.97m14.3,162.39c-5.4-6.56-9.31-12.27-11.74-19.73,5.37,2.11,12.82-3.36,15.41,3.44,1.64,4.28-3.93,9.46-3.67,16.3m1.97-61.94c-.33-.05-.67-.01-1,0q-14.74.82-15.23-21.71c9.28,2.43,18.51,4.48,20.04,16.36.45,3.53.93,6-3.81,5.34m16.33-168.28c-4.15.35-4.03-1.94-4.06-4.84-.05-4.46,2.62-3.63,5.26-2.94,4.63,1.21,8.53,3.83,14.18,7.69-6.2,0-10.82-.3-15.37.09m58.08,153.58c-3.35,2.9-3.94,7.33-6.56,10.67-1.57-2.2-.72-4.9-2.54-7.31-4.35-5.75-.39-8.12,5.03-8.85,1.51-.2,3.84.02,4.52.97.7.96.45,3.76-.44,4.53m46.95-90.89c-8.43-.71-14.95,3.08-22.33,9.1,2.01-13.25,11.26-17.62,19.55-22.77,2.44-1.52,3.85.8,4.67,2.31,1.77,3.26,4.06,6.79,4.12,10.25.05,2.62-4,1.29-6.01,1.12"/>
  <path class="cls-3" d="m271.57,115.02c-1.18,4.84,4.57,3.85,5.91,7.44-12.25,6.18-15.65,19.12-19.65,30.46-5.09,14.43-14.56,22.76-27.55,28.61-4.86,2.19-9.32,2.89-11.45-3.63,0-.55-.01-1.09-.02-1.64-2.89-12.41,6.56-21.04,9.76-31.59,4.29-14.13,9.28-28.06,3.27-42.92-.92-4.01-3.36-7.36-4.9-11.1-3.68-14.07-15.11-21.6-26.6-26.96-15.57-7.27-32.23-12.4-50.28-7.78-4.33,1.11-4.47,2.64-4.25,5.81,2.76,39.23,1.93,78.52,1.95,117.8,0,3.61,1.2,3.97,4.42,4.63,23.91,4.9,45.88,13.41,63.39,31.75,12.11,12.68,14.55,29.41,21.6,44.2,6.75,14.16,17.13,27.08,32.86,25.46,4.12-.43,7.34-1.89,10.61-4.06,5.53-3.66,9.37-1.24,10.41,4.4,1.55,8.36,2.63,16.85-4.32,24.05-7.32,7.58-16.01,11.52-26.28,9.55-16.54-3.18-25.84-13.66-31.83-29.62-6.37-16.98-16.63-32.33-28.38-46.43-9.19-11.03-19.81-20.21-32.79-26.5-1.13-.55-2.29-1.05-3.45-1.51-14.84-5.93-16.15-5.05-16.15,10.75,0,4.05,0,8.11,0,12.16q0,13.43-13.45,12.58c-15.65-.99-23.64-8.8-22.96-24.21,2.35-53.11,1.59-106.24,2.15-159.36.11-10.53-1.15-18.91-11.61-23.63-2.01-.91-4.17-2.72-5.29-4.01-3.01-3.49-11.46-3.33-9.23-9.66,1.77-5.04,8.11-1.89,12.3-2.1,14.15-.7,27.62,1.65,39.68,9.99,2.96,2.05,6.45,2.65,10.87.99,14.78-5.58,29.85-9.94,46.13-9.24,21.92.93,37.12,11.68,48.92,29.39,10.51,15.78,14.95,33.97,21.98,51.14.95,2.33,1.81,4.11,4.26,4.83l-.02-.02Z"/>
  <path class="cls-3" d="m108.42,62.06c.53,1.1.78,1.39.8,1.7.77,15.88,3.55,32.66-17.16,39.11-26.12,25.92-35.58,57.26-26.51,92.6,8.52,33.18,31.93,51.22,65.4,57.77,13.06,2.55,25.9,1.13,38.83,1.57,5.18.18,6.65,1.21,6.64,6.59-.03,16.53.27,17.31-16.64,17.77-31.44.85-62.02-2.13-88.66-21.97-15.75-11.73-24.93-27.73-32.83-44.87-4.89-10.61-5.7-22.73-11.66-32.95-3.13-5.37,3.07-7.21,3.95-11.29,2.02-9.36,3.05-18.88,5.37-28.24,5.85-23.61,21-40.29,38.52-55.1,10.18-8.6,21.23-16.48,33.97-22.69"/>
  <path class="cls-3" d="m226.95,90.67c1.04,3.53,4.45,6.1,4.08,10.2.29,6.95,1.82,14.82-9.86,12.23-2.63-.58-4.41.39-4.37,3.7.28,20.06-.31,40.13.39,60.19.01.36,1.05.66,1.67.95l-.02-.03c-1.49,7.99,1.03,12.03,9.82,10.2,1.62-.34,3.41-.29,5.05,0,13.89,2.4,21.83-2.56,28.24-16.07,5.43-11.43,16.42-20.18,30-23.79,2.97-.79,4.8-.86,7.03,1.22,3.23,3.02-.46,5.34-1.31,6.77-4.92,8.29-10.78,16.02-16.01,24.13-4.65,7.21-3.95,14.6-2.58,23.13,2.89,17.92,1.04,37.7-18.6,45.83-2.96,1.22-5.56,1.42-8.43,1.63-6.07.43-5.97-2.2-3.37-6.45,2.99-4.89,6.71-9.67,8.17-15.03.77-2.81,5.4-6.54.3-10.39-4.09-3.08-8.77-5.88-13.18-4.06-12.82,5.3-22.58,3.72-31.8-7.65-4.8-5.92-12.61-10.86-19.97-12.85-7.56-2.04-7.92-5.74-7.88-11.59.12-21.29.08-42.58.03-63.87-.02-11.04,2.53-22.76-9.48-30.81.54-.62,1.07-1.24,1.61-1.86,14.64,0,29.29-.18,43.92.19,2.22.06,4.37,2.66,6.55,4.09"/>
  <path class="cls-3" d="m271.6,115.05c-1.72-10.34-6.74-19.57-10.51-30.44,10.92,0,21.41-1.23,31.47.31,12.35,1.89,16.63-4.64,17.38-14.37.6-7.7,3.78-14.52,4.58-22.72,15.8,12.99,18.67,29.19,14.51,47.24-4.08,17.71-9.94,35.42,6.45,50.42,1.56,1.43.92,2.61-.07,4.27-2.16,3.64-3.55,7.63-8.87,7.94-5.42.32-8.49-1.83-10.43-6.91-3.03-7.91-6.83-15.53-9.95-23.42-3.17-8.01-6.59-14.66-17.42-12.53-5.52,1.09-11.44.18-17.18.18l.02.02Z"/>
  <path class="cls-3" d="m184.62,234.54c16.93,15.86,32.6,29.43,30.19,53.33-.77,7.69,6.03,11.77,9.24,17.47,2.27,4.03,4.1,8.23,8.07,13.87-19.7-6.53-37.52-14.9-56.69-1.51,13.48-25.89,7.85-53.51,9.18-83.16"/>
  <path class="cls-3" d="m149.88,88.65c0-7.74.57-15.53-.17-23.19-.65-6.74,2.02-7.82,7.82-7.33,5.67.48,12.62-2,16.83.49,5.54,3.28-1.06,9.66-.46,15.14,1.19,10.96.2,21.98,4.18,32.83,2.02,5.52.76,12.57-2.55,17.93-2.77,4.49-6.89,8.65-13.2,6.79-8.05-2.37-11.56-8.9-12.22-16.43-.76-8.68-.18-17.48-.18-26.22h-.04"/>
  <path class="cls-3" d="m170.76,323.01c-14.65-4.49-26.56-11.69-40.95-11.48-14.14.2-25.46,7.12-40.35,14.24,10.87-14.07,18.47-26.6,21.69-41,.99-4.42,3.58-4.07,5.44-3.23,6.06,2.74,12.34,2.1,18.48,1.72,7.63-.46,13.09.68,15.31,9.43,2.96,11.69,13.29,18.81,20.39,30.32"/>
</svg>